# xmcd CD database file
#
# Track frame offsets:
#	150
#	26240
#	45192
#	72653
#	97772
#	123081
#	139569
#	159875
#	192089
#	213768
#	244360
#	269686
#
# Disc length: 3830 seconds
#
# Revision: 0
# Processed by: cddbd v1.5.2PL0 Copyright (c) Steve Scherf et al.
# Submitted via: CDex 1.51
#
DISCID=9f0ef40c
DTITLE=Wycliffe Gordon - Cone's Coup
DYEAR=2006
DGENRE=Jazz
TTITLE0=SHHH (The Band is trying to play)
TTITLE1=Yaht Doo Daht Ditt
TTITLE2=Sweet spot
TTITLE3=Blues for Alice's Freigth Train
TTITLE4=Speak low
TTITLE5=The Breaks
TTITLE6=Blooz Hymn
TTITLE7=Just Friends
TTITLE8=Stars fell on Alabama
TTITLE9=Mister PC
TTITLE10=Cruise Blues
TTITLE11=Hush yo'Mouf
EXTD=YEAR: 2006
EXTT0=
EXTT1=
EXTT2=
EXTT3=
EXTT4=
EXTT5=
EXTT6=
EXTT7=
EXTT8=
EXTT9=
EXTT10=
EXTT11=
PLAYORDER=
